<svg xmlns="http://www.w3.org/2000/svg" viewBox="0 0 149.73 149.73"><defs><style>.cls-1{fill:#fff;}.cls-2{fill:#9dc182;}.cls-3{fill:#213b1d;}.cls-4{isolation:isolate;}</style></defs><g id="Layer_2" data-name="Layer 2"><g id="Layer_1-2" data-name="Layer 1"><circle class="cls-1" cx="74.87" cy="74.87" r="72.87"/><path class="cls-2" d="M74.87,4A70.87,70.87,0,1,1,4,74.87,70.87,70.87,0,0,1,74.87,4m0-4a74.87,74.87,0,1,0,74.86,74.87A74.95,74.95,0,0,0,74.87,0Z"/><path class="cls-3" d="M33.31,30.22c.18.47.54.43.85,0a8,8,0,0,1,6.2-2.67c5.8,0,9.3,4.18,9.3,10.85s-3.72,10.94-9.92,10.94a9.31,9.31,0,0,1-4-.82l-1.2-.51v9.64a.44.44,0,0,1-.49.47H30.08a.44.44,0,0,1-.49-.47V28.5a.44.44,0,0,1,.49-.48H32.3a.46.46,0,0,1,.53.39ZM35.79,44.3a8.29,8.29,0,0,0,3.64.73c3.41,0,5.36-2.45,5.36-6.59s-1.95-6.54-5.23-6.54-5.09,2.67-5.09,6.41V43.7Z"/><path class="cls-3" d="M56.23,28.24a17,17,0,0,1,4.83-.65c6,0,9.66,3,9.66,8.23V48.43a.44.44,0,0,1-.49.48H68a.54.54,0,0,1-.58-.39l-.35-1.34c-.27-.6-.53-.6-1.11-.08a7.93,7.93,0,0,1-6.07,2.28c-4.92,0-7.66-2.45-7.66-6.5s2.83-6.63,8.06-6.63h5.54V36c0-2.63-1.73-4.05-5-4.05a12.44,12.44,0,0,0-3.45.43l-1.6.48a.47.47,0,0,1-.62-.35l-1-3.19a.44.44,0,0,1,.35-.6ZM60.31,40c-2.17,0-3.19,1-3.19,2.46,0,1.68,1.2,2.71,3.32,2.71,3.5,0,5.41-1.68,5.41-4.87V40Z"/><path class="cls-3" d="M88.71,31.42a.44.44,0,0,1-.49.48c-4.83.21-7,3.49-7,11.41v5.12a.44.44,0,0,1-.48.48h-4a.44.44,0,0,1-.48-.48V28.5a.43.43,0,0,1,.48-.48h2.22a.54.54,0,0,1,.58.39l.7,2.45c.27.48.49.56.89.13a8.31,8.31,0,0,1,7-3.4.44.44,0,0,1,.49.48Z"/><path class="cls-3" d="M100.27,48.43a.44.44,0,0,1-.49.48H95.84a.44.44,0,0,1-.49-.48V32.29H93.18a.44.44,0,0,1-.49-.48V28.5a.44.44,0,0,1,.49-.48h6.6a.44.44,0,0,1,.49.48Zm0-27.86A2.67,2.67,0,0,1,97.3,23.5a2.7,2.7,0,0,1-3-2.93,2.69,2.69,0,0,1,3-2.88A2.65,2.65,0,0,1,100.22,20.57Z"/><path class="cls-3" d="M111.12,39.65c-3.68-.91-5.4-2.76-5.4-5.86,0-3.87,3-6.2,8.1-6.2a22.45,22.45,0,0,1,5.49.69l2,.47a.46.46,0,0,1,.36.61l-.93,3.23a.46.46,0,0,1-.62.34l-1.95-.52a17.77,17.77,0,0,0-4.3-.51c-2,0-3.23.73-3.23,1.89,0,1,.62,1.6,2,2L117,36.89c3.86,1,5.58,2.89,5.58,6,0,4-3.1,6.5-8.32,6.5a25.54,25.54,0,0,1-6.78-.9L105.76,48a.44.44,0,0,1-.35-.6l1-3.23a.42.42,0,0,1,.57-.3l1.6.43a23.71,23.71,0,0,0,5.67.73c2.17,0,3.41-.82,3.41-2.15,0-1-.62-1.68-2.09-2.11Z"/><g class="cls-4"><path class="cls-3" d="M70.62,123.16a.74.74,0,0,1-.82.79H67.47a.73.73,0,0,1-.81-.79v-6.9c-.1-.89-.61-1.09-1.22-.1a19.1,19.1,0,0,1-16.14,8.78c-12.79,0-20.41-9.38-20.41-24.48,0-15.29,7.92-24.37,21.42-24.47a28.83,28.83,0,0,1,12.9,2.66l3.14,1.48V55.56a.74.74,0,0,1,.81-.79H69.8a.74.74,0,0,1,.82.79ZM61.78,82.31A25.6,25.6,0,0,0,50.41,80c-10.76.09-17.35,7.59-17.25,20.42.1,12.64,6.19,20.43,16.24,20.43,11.37,0,16.95-9.67,16.95-22.2V84.48Z"/></g><path class="cls-2" d="M115.51,80.1a.5.5,0,0,0-.62-.34,128.53,128.53,0,0,0-18.4,7.4A25.24,25.24,0,0,1,100.07,83c4.44-3.92,6-3.3,6-3.3a.5.5,0,0,0,.54-.46.49.49,0,0,0-.45-.54c-.13,0-2-.69-6.78,3.55a30.09,30.09,0,0,0-4.87,6c-.36.21-.71.42-1,.64A41.22,41.22,0,0,0,87.21,94,16.22,16.22,0,0,1,89.12,88c4.18-7.41,6.08-8,6.11-8a.5.5,0,0,0-.35-.94c-.14,0-2.23.64-6.63,8.44a17.38,17.38,0,0,0-2.14,7.66c-1.32,1.35-2.55,2.7-3.62,3.93a15.65,15.65,0,0,0-4.11,5.06v0a.3.3,0,0,0,0,.1.27.27,0,0,0,0,.09.29.29,0,0,0,0,.09.32.32,0,0,0,0,.09.35.35,0,0,0,0,.08l.07.07,0,0h0l.08,0a.47.47,0,0,0,.17,0h0a.46.46,0,0,0,.25-.08s0,0,.06,0a.31.31,0,0,0,.09-.07s1.63-2.17,4-4.88a34.68,34.68,0,0,1,4.42-3.3c7.41-4.71,18.74,1.4,18.86,1.47A.5.5,0,1,0,107,97c-.54-.3-12-6.47-19.88-1.43h0v0A43.07,43.07,0,0,1,94,89.73l.55-.32a2.31,2.31,0,0,0,.59-.29c7.39-3.32,17,3.19,17.14,3.27a.51.51,0,0,0,.7-.14.5.5,0,0,0-.14-.69c-.4-.27-7.23-4.92-14.37-4.3a136.22,136.22,0,0,1,16.67-6.54A.51.51,0,0,0,115.51,80.1Z"/><path class="cls-3" d="M113.57,122.38a.65.65,0,0,0,.53-1l-.75-2.27a1,1,0,0,0-1.17-.59l-2.57.78A36,36,0,0,1,99,120.61c-9.85,0-16.27-5.53-17.77-15.3l22.91-3.56c9.1-1.48,11.3-5.3,13.58-11.94,1.37-4,2.77-14.3,2.77-14.3s-15.29.2-21.49.2c-14,0-22.68,9.36-22.68,24.46S84.88,124.64,99,124.64a42.67,42.67,0,0,0,11.88-1.57ZM80.81,101.46C80.92,87,87.56,79.74,99,79.74c5.25,0,15.88.33,15.88.33s-.76,7.2-1.64,9.74c-1.47,4.24-3.43,7-10,8.09Z"/></g></g></svg>